inDegrees=no
num_controls=7
num_derivatives=13
num_iterations=111
num_multipliers=7
num_parameters=0
num_slacks=7
num_states=26
objective=0.448384
objective_accelerations=0.049254
objective_balance=0.007260
objective_effort=0.036155
objective_height=0.350773
objective_ligament=0.004942
solver_duration=1612.048884
status=Solve_Succeeded
success=true
DataType=double
version=3
OpenSimVersion=4.5
endheader
time	/jointset/ground_pelvis/pelvis_tilt/value	/jointset/ground_pelvis/pelvis_tx/value	/jointset/ground_pelvis/pelvis_ty/value	/jointset/hip_l/hip_flexion_l/value	/jointset/hip_l/hip_adduction_l/value	/jointset/hip_l/hip_rotation_l/value	/jointset/back/lumbar_extension/value	/jointset/patellofemoral_l/patellar_flexion_l/value	/jointset/knee_l/knee_flexion_l/value	/jointset/knee_l/knee_adduction_l/value	/jointset/knee_l/knee_rotation_l/value	/jointset/ankle_l/ankle_angle_l/value	/jointset/subtalar_l/subtalar_angle_l/value	/jointset/ground_pelvis/pelvis_tilt/speed	/jointset/ground_pelvis/pelvis_tx/speed	/jointset/ground_pelvis/pelvis_ty/speed	/jointset/hip_l/hip_flexion_l/speed	/jointset/hip_l/hip_adduction_l/speed	/jointset/hip_l/hip_rotation_l/speed	/jointset/back/lumbar_extension/speed	/jointset/patellofemoral_l/patellar_flexion_l/speed	/jointset/knee_l/knee_flexion_l/speed	/jointset/knee_l/knee_adduction_l/speed	/jointset/knee_l/knee_rotation_l/speed	/jointset/ankle_l/ankle_angle_l/speed	/jointset/subtalar_l/subtalar_angle_l/speed	/forceset/tau_hip_flexion_l	/forceset/tau_hip_adduction_l	/forceset/tau_hip_rotation_l	/forceset/tau_knee_flexion_l	/forceset/tau_ankle_angle_l	/forceset/tau_subtalar_angle_l	/forceset/tau_lumbar_extension	lambda_cid13_p0	lambda_cid13_p1	lambda_cid13_p2	lambda_cid13_p3	lambda_cid13_p4	lambda_cid13_p5	lambda_cid14_p0	/jointset/ground_pelvis/pelvis_tilt/accel	/jointset/ground_pelvis/pelvis_tx/accel	/jointset/ground_pelvis/pelvis_ty/accel	/jointset/hip_l/hip_flexion_l/accel	/jointset/hip_l/hip_adduction_l/accel	/jointset/hip_l/hip_rotation_l/accel	/jointset/back/lumbar_extension/accel	/jointset/patellofemoral_l/patellar_flexion_l/accel	/jointset/knee_l/knee_flexion_l/accel	/jointset/knee_l/knee_adduction_l/accel	/jointset/knee_l/knee_rotation_l/accel	/jointset/ankle_l/ankle_angle_l/accel	/jointset/subtalar_l/subtalar_angle_l/accel	gamma_cid13_p0	gamma_cid13_p1	gamma_cid13_p2	gamma_cid13_p3	gamma_cid13_p4	gamma_cid13_p5	gamma_cid14_p0
1.5	-0.4459225287142432	-0.07221194555130989	0.7625936684794888	1.26615346268432	-0.3098205746747714	-0.04353365849776762	-0.344483135784511	0.6956767349312113	0.6956767349312784	-0.1733555299505661	0.1743987657451227	0.04212969403042106	-0.04820934501974393	0.7238147094567472	0.256780053482622	0.4892568215652567	-2.331464514899352	0.02959512660462461	-0.615441026334962	0.5623711739188664	-1.763950421844999	-1.763950421844984	0.004901623728303248	-0.001311639354360532	-0.2518227640506599	0.0007934482054111172	-0.2487075021850721	0.02477642841209087	-0.0212990909817738	-0.2021009094370198	0.1376754800861389	0.03720126393613311	0.2242325767927832	5.183703173326448	-19.79032085103519	5.866656195613927	-5.108899591457825	-609.8343813742428	-53.86182942217762	-27.91464583962784	0.6284636003337627	0.6633490809456305	-0.3058005601710022	-1.49518614163017	0.5890323129324987	-0.2966993825269251	1.698480956232278	-1.07563156660504	-1.075631566605059	0.02848073154819016	-0.02337378109657479	-0.1557483384684066	0.5671859014507269	2.80589105561063e-07	7.107558399880267e-07	-1.393588323737956e-06	-8.999629050505127e-08	3.49391349925484e-07	-2.810817458960308e-08	3.009385423674329e-07
1.51	-0.4386532890735944	-0.06961116129455776	0.7674700451368478	1.242766121021653	-0.3094961669596504	-0.04970234008297225	-0.3387757123682365	0.6779855932980543	0.6779855932980891	-0.1733071285772477	0.1743855746820514	0.03960385831590018	-0.04817413422249844	0.7299370064648034	0.2633501644019445	0.485925121970517	-2.345699020818013	0.03529488466279074	-0.6181928828707689	0.5790559281466083	-1.774043978204323	-1.774043978204306	0.004758451672408499	-0.001347497512676777	-0.2532925827473819	0.006258408707519375	-0.2410324092657679	0.02418045749163512	-0.02114862806762139	-0.2005892798786421	0.1376407095686738	0.03657807877634277	0.2182955817939872	5.394993040374622	-19.66558929888411	5.971186058398165	-5.066678655458563	-605.6061865075208	-54.13411218678625	-28.93486594706894	0.5897034768539481	0.6498615284998057	-0.3608118718012779	-1.341836065323361	0.5616772323270626	-0.2488413535885481	1.644835477645333	-0.9411746164354888	-0.9411746164353184	-0.03859550430076666	0.003353154955348419	-0.1348182724961278	0.5375194386512213	1.825882873973927e-07	9.384280608504368e-07	-9.272678829582859e-07	1.708944610328778e-08	2.87019566708431e-07	4.48696157660724e-08	2.538984468770432e-07
1.52	-0.4313257083177017	-0.06694547204239761	0.7723103133557242	1.21924558365013	-0.3091145157279344	-0.05589542274643277	-0.3329031688453645	0.6602005247121369	0.6602005247121387	-0.1732607347905153	0.1743714340350273	0.03706488048696745	-0.04808400015741977	0.7354829325053538	0.2697610525642276	0.4820351338687436	-2.358103656670247	0.04104382992369442	-0.6203212419858152	0.5953951952383577	-1.782735812397224	-1.782735812397205	0.004500106410814807	-0.00150155614481296	-0.2544511869329844	0.01177810177204173	-0.2333573163464713	0.02358448657117273	-0.02099816515346101	-0.1990776503202663	0.1376059390512073	0.03595489361654522	0.2123585867951857	5.598581607556919	-19.54224060040466	6.079056457242255	-5.015043955134508	-601.5027093830394	-54.46833202764441	-29.93791707219433	0.5131894068325761	0.6315045295377281	-0.4174582615777419	-1.129212128344706	0.5988697534800028	-0.1719998983747834	1.629383529033743	-0.7952871333203797	-0.7952871333203806	0.005446090408401039	-0.04701387586055789	-0.09350543624451679	0.5781324139335439	1.154118875584728e-07	1.109905991704079e-06	-6.156480682422499e-07	8.93328010738434e-08	2.495660120050361e-07	9.888799932371204e-08	2.234293212872101e-07
1.53	-0.4239455746539799	-0.06421650652175052	0.7771089398435532	1.195610188895881	-0.3086751129591894	-0.06210744353300522	-0.3268690831758868	0.6423357355949042	0.6423357355948918	-0.1732169752034715	0.1743557533988267	0.03451597098086311	-0.0479383531699438	0.7404419952196544	0.2760010713020605	0.4776014269975238	-2.368661533771217	0.04684124947659565	-0.6219970067115955	0.611354407369183	-1.789976359012233	-1.789976359012233	0.004244649480933374	-0.001639930382258083	-0.2552721749085696	0.01735839664717112	-0.2255639440091127	0.02278133937848578	-0.02089185367943183	-0.1976971361121309	0.1378350459806785	0.03518321721942649	0.2063047084672163	5.881466198243197	-19.37000711631677	6.181098658954409	-5.018504358113811	-597.4321078569191	-54.73781273412006	-30.91948742575142	0.4720093545667202	0.6156321890257052	-0.4695908626345636	-0.9719924356063466	0.5707456132986979	-0.1522672052884347	1.569060361924497	-0.6516313562008008	-0.6516313562035024	-0.04191208807579468	0.002083946888276454	-0.06760014164025366	0.5488870109845718	8.098643218959982e-08	1.221677489423405e-06	-4.683976687188239e-07	1.245561255542545e-07	2.385880750974026e-07	1.327620131584389e-07	2.105668512167181e-07
1.54	-0.4165189014329478	-0.06142606448510121	0.7818605764701221	1.171878631983694	-0.308177622483495	-0.06833360245595886	-0.3206774313237377	0.6244059024253994	0.6244059024253733	-0.1731759442864003	0.1743385556491685	0.03196061066231764	-0.04773672143638014	0.7447908439674736	0.2820563557646761	0.4726371616166768	-2.377336088257515	0.05266137131364002	-0.6231488692617275	0.6269084317727115	-1.795744622851625	-1.795744622851643	0.00395437241547603	-0.001804978836712961	-0.2557413494211442	0.02297505098957818	-0.2177705716717644	0.02197819218579131	-0.02078554220537524	-0.1963166219040024	0.1380641529101469	0.03441154082229961	0.2002508301392394	6.155927205525342	-19.19852009255029	6.285797313249923	-5.004721387301617	-593.4933639751855	-55.06407954917206	-31.87528516549827	0.3911466135363209	0.5945576744942713	-0.5235699635031712	-0.752547605410146	0.603410210308626	-0.06721946324509601	1.548345983574339	-0.500830578196913	-0.5008305781969504	-0.001517936706780496	-0.05234871926250511	-0.02314274364240481	0.5854043073890755	5.748246081243559e-08	1.304243895719918e-06	-3.80655941870844e-07	1.482893518613723e-07	2.333145080388966e-07	1.6108495877348e-07	2.033285099924879e-07
1.55	-0.4090517689099433	-0.05857604112645785	0.7865599724926675	1.148069754704611	-0.307621843324648	-0.07456880147666847	-0.3143323369023567	0.6064258663687426	0.6064258663687213	-0.1731378935179488	0.1743196744695986	0.02940238580070492	-0.04747874736517262	0.7485330082287522	0.2879119742895707	0.4671586391901059	-2.384118399452631	0.05849583229807683	-0.6238018416455083	0.6420376758283479	-1.800005190814634	-1.800005190814631	0.003654799379609588	-0.001978368208756165	-0.2558386554558834	0.02862518922351048	-0.2100490928968414	0.02105532225487456	-0.02070168120407965	-0.194844624113429	0.1382290668049707	0.03353744087088758	0.1942201684623849	6.40190403724256	-18.97836667453006	6.383654931167137	-4.963852397181928	-589.6412745720905	-55.3127281957286	-32.80088853055153	0.3503661318469349	0.5756456131741234	-0.5724568705944116	-0.5929115942985845	0.5735377838275645	-0.05075974925556768	1.484297115306819	-0.3501006853582038	-0.3501006853550765	-0.0441040471428281	-0.0007662429119864936	0.006734178560464854	0.5554566148352039	4.656193838223942e-08	1.353160957551017e-06	-3.614785552793528e-07	1.587839867949139e-07	2.346133671109067e-07	1.830121083962749e-07	2.025701433085153e-07
